<svg xmlns="http://www.w3.org/2000/svg" viewBox="0 0 892.11 569.88"><defs><style>.cls-1{fill:#d30707;}</style></defs><title>summer_camp_2018_logo_big</title><g id="Livello_2" data-name="Livello 2"><g id="Livello_2-2" data-name="Livello 2"><path class="cls-1" d="M90,95.31S14.35,81.6,2.28,132.06s25.23,63.61,76.23,59.77,71.5,35.65-11,70.74c0,0,43.87,18.1,82.26-28s-30.86-65.75-39.48-67.46c-28.45-5.64-109-5.49-62.52-42.05C58,117.11,77.59,110.69,90,95.31Z"/><path class="cls-1" d="M149.44,104.3s2.63,104.38,48.26,93.36S220.25,105.87,214,80.17c0,0-1.57,86-22,83.92S149.44,104.3,149.44,104.3Z"/><path class="cls-1" d="M399.12,238.58c3.14-51.93-63.47-207.19-63.47-207.19s-23.08,113.3-30.95,107.93S264.84,44,264.84,44s0,10.49-11,72.38S258,255.88,258,255.88a55.65,55.65,0,0,0,24.13-43c1.57-29.37,6.29-39.34,6.29-39.34s22.86,29.9,36.08,31.48c0,0,9-3.68,11.65-28.85s5.77-32.52,5.77-32.52,11,40.91,28.85,62.42S399.12,238.58,399.12,238.58Z"/><path class="cls-1" d="M488.59,202.6a2.22,2.22,0,0,0,.79-.13c7.29-2.65,26.5-45.05,26.5-45.05,15.91,58.3,52.35,84.81,52.35,84.81S565.58,164,551,132.57s-19.88-115-19.88-115S512.57,50.07,502,70s-20.54,69.37-20.54,69.37-19.22-27-23.86-54.13-23.85-67.58-23.85-67.58,3.31,36.44-6,113.3,0,116.62,0,116.62c26.5-25.84,25.18-81.5,25.18-81.5S480.21,202.6,488.59,202.6Z"/><path class="cls-1" d="M631.88,30.19a36.94,36.94,0,0,0-10.14-1.49c-11.56,0-21.7,6.13-29.2,17.86C570,81.8,563.48,120.81,576.32,143.63c7.81,13.89,22.13,21,41.42,20.55,23.31-.53,40.29-11.15,50.46-31.57a83.47,83.47,0,0,0,6.71-19.44c-4.63,6-13.84,13.62-32.07,20.78-11,4.32-20.22,4.2-27.39-.36-13-8.25-14.35-27.87-14.41-28.77h0a111.93,111.93,0,0,1,.43-24.31c2.31-16.69,9-26.23,19.42-27.58a18.1,18.1,0,0,1,17.19,7.31,22.12,22.12,0,0,1,2.36,22.08c-2.73,6.29-10.71,17-33.83,20.52,23.75-2.28,39.39-5.3,40.61-5.54,14-4.39,21.36-12.84,21.22-24.44C668.24,55.64,651.15,35.7,631.88,30.19Z"/><path class="cls-1" d="M825.6,7.07C805.58,2,789.52,0,776.66,0c-44.56,0-50.73,23.73-50.73,23.73-12.06,72.08-64.21,238.49-64.21,238.49,42.76-27,99.9-218.87,99.9-218.87a89.29,89.29,0,0,1,21.83-2.51C817.21,40.84,851,56,851,56s-77.27,27.64-49.44,57.56,67.52,50.46,67.52,50.46c-8.6-13.08-48.35-62.79-48.35-62.79s28.56-16.08,51.92-21.45S915,29.8,825.6,7.07Z"/><path class="cls-1" d="M241.09,336.67s-134.7-59-182.13,100c-43.64,146.26,144.28,87.81,189.23,29.27,0,0-153.3,42.19-131.93-29.21C139.53,359,241.09,336.67,241.09,336.67Z"/><path class="cls-1" d="M528.19,350.48c-2.63,24.14-23.38,65-23.38,65-8.5-17.79-21.91-36.59-26.37-55.94a169.76,169.76,0,0,0-28.29-61c-47.19,114.48-7.74,253.14-7.74,253.14C462.52,523.87,463,432.64,463,432.64c3.1,18.56,45.93,56.22,45.93,56.22,20.89-20.88,29.86-64.32,29.86-64.32,5.41,38.79,63,111.68,63,111.68,0-95.75-48-256.94-48-256.94S530.24,331.68,528.19,350.48Z"/><path class="cls-1" d="M625.11,322.17a130.34,130.34,0,0,1-20.75-20.87,116,116,0,0,1-31.54,16.23l-.16.05c2.18,8.32,4.56,17.64,7,27.67,18.45-6.92,39.3-16.42,48.33-20.62Q626.61,323.37,625.11,322.17Z"/><path class="cls-1" d="M528,352c17.34-.35,34.17-1.47,44.09-4.13-2.48-10.15-4.88-19.55-7.07-27.93a146.44,146.44,0,0,1-29.71,4.94c-3.6,10.1-6.46,19.57-7.12,25.6C528.14,351,528.07,351.49,528,352Z"/><path class="cls-1" d="M561,275.89a8.23,8.23,0,0,1,.43,1.11c0,.09.6,2,1.59,5.49a110.72,110.72,0,0,0,27.28-9c3.24-4.89,20.65-30.46,37.32-42.58,9.88-7.19,19.89-19.34,26.6-28.34a98.26,98.26,0,0,0-27-13c-13.26,14-31.49,34.35-38.7,47.61C581.6,250,570,265.07,561,275.89Z"/><path class="cls-1" d="M554.93,283.15l-.62.72.8-.1C555.05,283.55,555,283.35,554.93,283.15Z"/><path class="cls-1" d="M531.21,358.93c15.38,9.39,32.5,14.67,47.17,15.55-1.55-6.82-3.11-13.45-4.64-19.82C563.69,357.28,547.77,358.48,531.21,358.93Z"/><path class="cls-1" d="M496.35,322.71A89.11,89.11,0,0,0,520,351.1c.07-.5.15-1,.2-1.49.66-6.05,3.2-14.91,6.47-24.42A170.74,170.74,0,0,1,496.35,322.71Z"/><path class="cls-1" d="M656.51,252a81.39,81.39,0,0,1-17.45-21.49,82.24,82.24,0,0,1-7.28,6c-6.79,4.94-13.86,12.48-19.94,19.8a343,343,0,0,1,37.91,33.48c6.79-5.62,17-11.71,31.82-15.34-3.4-3.71-6.68-7.13-9.67-10A45.29,45.29,0,0,1,666,269a8,8,0,0,1-11.9-9.15C654.15,259.62,655,256.85,656.51,252Z"/><path class="cls-1" d="M689.54,272.86c2.25-.37,4.58-.7,7-.95a107.69,107.69,0,0,0-8-27.59,122.86,122.86,0,0,1-11.67,15.24C680.78,263.36,685.11,267.93,689.54,272.86Z"/><path class="cls-1" d="M697.61,282.06c0-.73-.12-1.47-.17-2.21l-1.58.19Z"/><path class="cls-1" d="M667.2,251.39c1.14.77,2.39,1.73,3.72,2.82A127.91,127.91,0,0,0,684.37,236a102.55,102.55,0,0,0-10.09-14.89c-3.58,11.94-6.63,21.93-8.83,29.07C666,250.58,666.6,251,667.2,251.39Z"/><path class="cls-1" d="M663.31,257.21l0,0c-1,3.26-1.56,5-1.56,5a36.51,36.51,0,0,0,4.16-3.11C665,258.39,664.11,257.75,663.31,257.21Z"/><path class="cls-1" d="M658.78,244.62c2.4-7.82,5.58-18.28,9.23-30.52a96.58,96.58,0,0,0-8.13-7.35,196.54,196.54,0,0,1-15.62,18.66A76.25,76.25,0,0,0,658.78,244.62Z"/><path class="cls-1" d="M563.21,313.1c-2.44-9.18-4.56-16.83-6.16-22.53-1,.13-2,.26-3,.37-1.78.19-3.64.35-5.56.46-3,7.17-7,16.69-10.57,26.25A138.32,138.32,0,0,0,563.21,313.1Z"/><path class="cls-1" d="M529.22,318.15c3.44-9.4,7.3-18.91,10.52-26.56a109.06,109.06,0,0,1-51.49-13.81A78.85,78.85,0,0,0,492.87,315,163.68,163.68,0,0,0,529.22,318.15Z"/><path class="cls-1" d="M581.35,352.11c1.4,5.79,2.82,11.79,4.23,17.95.34,1.48.67,2.95,1,4.43l.86-.05c15.33-1.17,33.15-4.16,49.94-10.08V334.92c-1.29-1.7-2.65-3.38-4.12-5C625.84,333.39,602,344.4,581.35,352.11Z"/><path class="cls-1" d="M645.38,361.27c1.73-.73,3.44-1.48,5.13-2.28a112,112,0,0,0-5.13-11.35Z"/><path class="cls-1" d="M607.45,261.8c-5,6.41-8.9,12-10.69,14.66a123.08,123.08,0,0,0,32.72,40.24,74.81,74.81,0,0,1,7.9,7.33V306.6a8,8,0,0,1,.91-3.71,40.37,40.37,0,0,1,6.34-8.3A335.87,335.87,0,0,0,607.45,261.8Z"/><path class="cls-1" d="M565,289.24c1.56,5.57,3.57,12.85,5.87,21.47a110,110,0,0,0,29.29-15,118,118,0,0,1-9-14.82A118.5,118.5,0,0,1,565,289.24Z"/><path class="cls-1" d="M645.38,306.6V334a108,108,0,0,1,11.45,21.77A88.61,88.61,0,0,0,680,337.88a282.86,282.86,0,0,0-29.83-37.52A32.33,32.33,0,0,0,645.38,306.6Z"/><path class="cls-1" d="M687.7,281.32c-15.48,3.07-25.83,9-32.41,14.29a292.23,292.23,0,0,1,29.33,36.59A67.12,67.12,0,0,0,697.2,299q.31-3,.46-6.06C694.39,289.07,691,285.12,687.7,281.32Z"/><path class="cls-1" d="M575.85,244.6c2.46-3.7,4.72-7.35,6.6-10.8,7.16-13.16,23.94-32.26,37.14-46.32a116.63,116.63,0,0,0-27.16-2.79,89.91,89.91,0,0,0-12.34,1A122.25,122.25,0,0,1,573,198c2.47,23.08,3.16,42.36,3.21,44A8,8,0,0,1,575.85,244.6Z"/><path class="cls-1" d="M545.24,230.94a192.54,192.54,0,0,0-25,34.66,139.36,139.36,0,0,0-7.3,15.09,101.24,101.24,0,0,0,29.76,3.93c1.87-4.35,3.26-7.46,3.78-8.62a8,8,0,0,1,7.3-4.72l.53,0a8.23,8.23,0,0,1,1.24.18c5.45-6.61,11.93-14.81,17.65-23a7.45,7.45,0,0,1-1.24.83,8,8,0,0,1-3.75.94,8,8,0,0,1-4.71-1.53C562.82,248.19,555.08,242.45,545.24,230.94Z"/><path class="cls-1" d="M550.78,225c9.8,11.61,17.45,17.19,17.45,17.19s-.51-14.91-2.29-34.33a182,182,0,0,1-14.26,16.21C551.37,224.42,551.08,224.73,550.78,225Z"/><path class="cls-1" d="M546.7,219.19a165.21,165.21,0,0,0,18.2-21.7q-.45-4.11-1-8.33a112.83,112.83,0,0,0-29.35,12.92,169.22,169.22,0,0,0,11.77,17.47Z"/><path class="cls-1" d="M540.76,225.45a174.72,174.72,0,0,1-12.82-18.82c-14.93,11.17-28.63,28-36.12,53.47a105.73,105.73,0,0,0-2.49,10.29,104.23,104.23,0,0,0,16.95,8.1C509.45,270.48,519.21,249.1,540.76,225.45Z"/><path class="cls-1" d="M790.33,295.75c-33.31-12.19-59.42-16.56-79.71-16.56-50.89,0-65.24,27.41-65.24,27.41V569.88s27.39-13.48,38.6-51.53c7.38-25.08-11.8-88.65,68.43-88.66,2.37,0,4.81.06,7.35.17,1.74.08,3.48.12,5.19.12C850.46,430,897.43,335,790.33,295.75ZM707.53,386c6.76-32,0-54.54,0-54.54a78.91,78.91,0,0,1,25.12-4.15c11.46,0,25,2.74,36.18,12.71C815,381,707.53,386,707.53,386Z"/><path class="cls-1" d="M267.14,314.59c1.38,3.39,16.65-7,18.08-5.86,2.86,2.24,1.82,10-.7,11.91-16.56,12.42-32.13,8.71-32.92-1.94s12.35-14.44,20.78-22.45.23-20-10.26-17-11.55,8.23-14.27,12c-1.61,2.26-13,11.53-8.11-7.6s32.79-17.45,44.29-11c0,0,15.74,9.3-3.21,24.89C271.7,305.1,264.52,308.13,267.14,314.59Z"/><path class="cls-1" d="M348.47,283c-7.46-21.9-20.43-20.38-26.85-18.53-9.66,2.78-22.28,8.59-21.31,28.16s13.68,23.78,25.21,21.52S355.94,304.92,348.47,283ZM325,302.54c-7.64,1.73-13.35-1.81-14.15-9.8s3.35-17.58,10.84-18.14c10-.73,14.08,3.6,15.92,11.31C339.15,292.14,332.69,300.81,325,302.54Z"/><path class="cls-1" d="M372.45,316.83c4.73-5.71,4-13.51,4.21-29.35s6.36-17.39,2.41-22.86c-4.2-5.81-14.93-2.86-23.76,8.63s.7,8.77,6.13,5.54,10.13.42,3.29,23S369.75,320.1,372.45,316.83Z"/><path class="cls-1" d="M408.62,285.18A17.35,17.35,0,0,0,391,302.43c-.16,9.23,2.62,15.9,15.92,14.92s20.12-4.54,19.93-17.54C426.61,287,416.52,285.44,408.62,285.18Zm5.81,22.49c-5.52,2.73-13.63,2.67-14-5s4.93-8.62,7.88-8.83c2.31-.16,6.63,0,9,2.09S420.38,304.74,414.43,307.67Z"/><path class="cls-1" d="M429.52,272.55c-1.82-6.32-7.44-12-17.77-11.24-9.25.68-16.21,1.9-18.08,15.08-2,13.94,13.7,15,21.76,14.59S433,284.75,429.52,272.55Zm-16.3,11.55c-5.68.85-10.56-1.64-10.2-8,.15-2.62.85-6.86,7.74-8,2.94-.51,9.37.64,10.92,5.77C423.79,280.83,418.94,283.23,413.22,284.1Z"/><path class="cls-1" d="M382.73,434.36s-22.37-75.81-40.21-81.44-58,62.94-78.83,124.86c-17.64,52.47,77.46,4.92,99.44-9.22,12.06-7.76,5.35,21.17,20.2,18.75,20.42-3.32,34.07-43.7,6-19.48-6.75,5.81.78-34.8-24-32.64-32.35,2.81-36,27.05-52.57,27.48-19.53.52-17.21-36.36,12.17-67.07,8-8.38,33-1.37,57.82,38.76"/></g></g></svg>