<svg xmlns="http://www.w3.org/2000/svg" viewBox="0 0 283.46 48.22"><defs><style>.cls-1{fill:#d30707;}</style></defs><title>Risorsa 4</title><g id="Livello_2" data-name="Livello 2"><g id="Livello_1-2" data-name="Livello 1"><path class="cls-1" d="M14.46,15.31S2.3,13.11.37,21.21s4.05,10.22,12.24,9.61,11.49,5.72-1.76,11.36c0,0,7,2.91,13.22-4.49s-5-10.56-6.35-10.84C13.15,26,.21,26,7.68,20.1,9.31,18.81,12.46,17.78,14.46,15.31Z"/><path class="cls-1" d="M24,16.76s.42,16.76,7.75,15S35.38,17,34.37,12.88c0,0-.25,13.82-3.54,13.48S24,16.76,24,16.76Z"/><path class="cls-1" d="M64.12,38.33C64.62,30,53.92,5,53.92,5s-3.71,18.2-5,17.34-6.4-15.32-6.4-15.32,0,1.69-1.77,11.63.67,22.42.67,22.42a9,9,0,0,0,3.88-6.91c.25-4.72,1-6.32,1-6.32s3.67,4.8,5.79,5.05c0,0,1.46-.59,1.88-4.63a21.79,21.79,0,0,1,.92-5.22s1.77,6.57,4.64,10S64.12,38.33,64.12,38.33Z"/><path class="cls-1" d="M78.49,32.55l.13,0c1.17-.43,4.26-7.24,4.26-7.24,2.55,9.37,8.41,13.62,8.41,13.62s-.43-12.56-2.77-17.61-3.2-18.47-3.2-18.47-3,5.21-4.68,8.41-3.3,11.14-3.3,11.14a24.87,24.87,0,0,1-3.83-8.69c-.75-4.37-3.83-10.86-3.83-10.86s.53,5.85-1,18.2,0,18.74,0,18.74c4.26-4.16,4-13.1,4-13.1S77.15,32.55,78.49,32.55Z"/><path class="cls-1" d="M101.51,4.85a5.9,5.9,0,0,0-1.63-.24,5.53,5.53,0,0,0-4.69,2.87c-3.62,5.66-4.67,11.93-2.6,15.59,1.25,2.24,3.55,3.38,6.65,3.31a8.71,8.71,0,0,0,8.11-5.08,13.45,13.45,0,0,0,1.07-3.12c-.74,1-2.22,2.19-5.15,3.34a4.74,4.74,0,0,1-4.4-.06c-2.08-1.32-2.3-4.48-2.31-4.62h0a17.32,17.32,0,0,1,.07-3.91c.37-2.68,1.45-4.21,3.12-4.43a2.92,2.92,0,0,1,2.76,1.18,3.55,3.55,0,0,1,.38,3.54c-.44,1-1.72,2.74-5.44,3.3,3.82-.37,6.33-.85,6.53-.89,2.25-.7,3.43-2.06,3.4-3.93C107.35,8.94,104.61,5.74,101.51,4.85Z"/><path class="cls-1" d="M132.63,1.14A32.13,32.13,0,0,0,124.77,0c-7.16,0-8.15,3.81-8.15,3.81-1.94,11.58-10.31,38.32-10.31,38.32,6.86-4.35,16-35.17,16-35.17a14.71,14.71,0,0,1,3.51-.4A30.63,30.63,0,0,1,136.72,9s-12.42,4.44-7.95,9.25a46.16,46.16,0,0,0,10.85,8.11c-1.38-2.1-7.77-10.09-7.77-10.09a39,39,0,0,1,8.34-3.45C144,12,147,4.79,132.63,1.14Z"/><path class="cls-1" d="M185.27,10.76S163.63,1.28,156,26.82c-7,23.5,23.18,14.11,30.4,4.7,0,0-24.63,6.78-21.19-4.69C169,14.34,185.27,10.76,185.27,10.76Z"/><path class="cls-1" d="M231.39,13c-.42,3.87-3.76,10.44-3.76,10.44-1.36-2.86-3.51-5.88-4.23-9a27.12,27.12,0,0,0-4.55-9.79C211.27,23,217.61,45.3,217.61,45.3c3.23-4.47,3.31-19.13,3.31-19.13.5,3,7.38,9,7.38,9,3.35-3.36,4.79-10.34,4.79-10.34.87,6.24,10.12,17.94,10.12,17.94,0-15.38-7.7-41.27-7.7-41.27S231.72,10,231.39,13Z"/><path class="cls-1" d="M273.5,4.18a37.68,37.68,0,0,0-12.8-2.66c-8.18,0-10.48,4.41-10.48,4.41V48.22a13.61,13.61,0,0,0,6.2-8.28c1.18-4-1.9-14.24,11-14.24l1.18,0,.84,0C283.16,25.75,290.71,10.48,273.5,4.18ZM260.2,18.67a19.22,19.22,0,0,0,0-8.76,12.62,12.62,0,0,1,4-.67,8.57,8.57,0,0,1,5.81,2C277.46,17.87,260.2,18.67,260.2,18.67Z"/><path class="cls-1" d="M208,26.45s-3.59-12.18-6.46-13.08-9.32,10.11-12.66,20.06c-2.83,8.43,12.44.79,16-1.49,1.94-1.24.86,3.41,3.25,3,3.28-.54,5.47-7,1-3.13-1.08.93.12-5.59-3.86-5.25-5.19.46-5.78,4.35-8.44,4.42-3.14.08-2.77-5.84,2-10.78C200,18.88,204,20,208,26.45"/></g></g></svg>